<svg width="22" height="22" viewBox="0 0 22 22" fill="none" xmlns="http://www.w3.org/2000/svg">
<path d="M19.7751 17.8334C19.7751 19.4377 18.5946 20.75 17.1519 20.75H4.84827C3.40562 20.75 2.2251 19.4377 2.2251 17.8334C2.2251 16.8514 2.66798 15.9781 3.34228 15.4492L9.889 9.62088C10.0108 9.51694 10.1687 9.68451 10.081 9.82439L7.67948 14.6177C7.61224 14.7517 7.69945 14.9169 7.83782 14.9169H17.1524C18.5951 14.9169 19.7751 16.2297 19.7751 17.8334ZM19.7751 4.16657C19.7751 5.14864 19.3322 6.02191 18.6579 6.55083L12.1112 12.3791C11.9894 12.4831 11.8315 12.3155 11.9192 12.1756L14.3207 7.38233C14.388 7.24828 14.3007 7.08315 14.1624 7.08315H4.84827C3.40562 7.08315 2.2251 5.77081 2.2251 4.16657C2.2251 2.56234 3.40562 1.25 4.84827 1.25H17.1524C18.5951 1.25 19.7751 2.56234 19.7751 4.16657Z" fill="white"/>
</svg>
