<svg width="22" height="22" viewBox="0 0 22 22" fill="none" xmlns="http://www.w3.org/2000/svg">
<g clip-path="url(#clip0_266_1129)">
<path fill-rule="evenodd" clip-rule="evenodd" d="M8.48236 0.70454C9.20203 0.577195 10.0199 0.504151 10.8764 0.500172C11.7329 0.496192 12.6258 0.561277 13.4865 0.70454C14.846 0.931139 15.9914 1.95106 15.9914 3.30878V8.07933C15.9914 9.47825 14.8794 10.6252 13.4865 10.6252H8.48236C6.78335 10.6252 5.3526 12.0838 5.3526 13.7374V16.0263H3.63006C2.17403 16.0263 1.32356 14.9695 0.967434 13.4863C0.487037 11.4938 0.50744 10.3029 0.967434 8.39464C1.36622 6.72979 2.64116 5.85463 4.09719 5.85463H5.97738H10.9873V5.21817H5.97738V3.30878C5.97738 1.86304 6.3623 1.07908 8.48236 0.70454ZM9.10714 2.99347C9.10714 2.46536 8.68454 2.03586 8.16705 2.03586C7.6477 2.03586 7.22695 2.46536 7.22695 2.99347C7.22695 3.5197 7.6477 3.94524 8.16705 3.94524C8.68454 3.94524 9.10714 3.5197 9.10714 2.99347ZM16.6161 8.07938V5.85469H18.4963C19.9542 5.85469 20.6415 6.94521 21.0013 8.39469C21.5021 10.4079 21.5244 11.917 21.0013 13.4864C20.4949 15.0108 19.9524 16.0264 18.4963 16.0264H15.9914H10.9872V16.6629H15.9914V18.5723C15.9914 20.018 14.7477 20.7529 13.4864 21.1181C11.5889 21.6687 10.0681 21.5844 8.48228 21.1181C7.15794 20.7286 5.9773 19.93 5.9773 18.5723V13.8017C5.9773 12.429 7.11157 11.2559 8.48228 11.2559H13.4864C15.1539 11.2559 16.6161 9.80416 16.6161 8.07938ZM14.7418 18.8876C14.7418 18.3613 14.321 17.9358 13.8017 17.9358C13.2842 17.9358 12.8616 18.3613 12.8616 18.8876C12.8616 19.4157 13.2842 19.8452 13.8017 19.8452C14.321 19.8452 14.7418 19.4157 14.7418 18.8876Z" fill="white"/>
</g>
<defs>
<clipPath id="clip0_266_1129">
<rect width="22" height="22" fill="white"/>
</clipPath>
</defs>
</svg>
