<svg width="22" height="22" viewBox="0 0 22 22" fill="none" xmlns="http://www.w3.org/2000/svg">
<g clip-path="url(#clip0_266_1125)">
<path d="M10.9999 0.5C9.58683 0.5 8.18755 0.778333 6.88201 1.31911C5.57646 1.85988 4.39021 2.65251 3.39099 3.65173C1.37297 5.66975 0.239258 8.40677 0.239258 11.2607C0.239258 16.0169 3.32757 20.0522 7.59957 21.4833C8.1376 21.5694 8.30977 21.2358 8.30977 20.9453C8.30977 20.6978 8.30977 20.0199 8.30977 19.1267C5.32906 19.7724 4.69418 17.6848 4.69418 17.6848C4.19919 16.4366 3.49975 16.103 3.49975 16.103C2.52052 15.4358 3.57507 15.4573 3.57507 15.4573C4.65114 15.5327 5.22145 16.5657 5.22145 16.5657C6.15763 18.2013 7.73945 17.7171 8.35281 17.4588C8.44966 16.7594 8.72944 16.2859 9.03074 16.0169C6.64186 15.7479 4.13463 14.8225 4.13463 10.7226C4.13463 9.52821 4.54353 8.57051 5.24298 7.8065C5.13537 7.53749 4.75875 6.41838 5.35058 4.96568C5.35058 4.96568 6.25448 4.67515 8.30977 6.06327C9.15986 5.82654 10.0853 5.70817 10.9999 5.70817C11.9146 5.70817 12.84 5.82654 13.6901 6.06327C15.7454 4.67515 16.6493 4.96568 16.6493 4.96568C17.2411 6.41838 16.8645 7.53749 16.7569 7.8065C17.4564 8.57051 17.8653 9.52821 17.8653 10.7226C17.8653 14.8332 15.3473 15.7371 12.9476 16.0061C13.335 16.3397 13.6901 16.9961 13.6901 17.9969C13.6901 19.4388 13.6901 20.601 13.6901 20.9453C13.6901 21.2358 13.8623 21.5802 14.4111 21.4833C18.6831 20.0414 21.7606 16.0169 21.7606 11.2607C21.7606 9.84757 21.4823 8.44829 20.9415 7.14275C20.4007 5.8372 19.6081 4.65095 18.6089 3.65173C17.6097 2.65251 16.4234 1.85988 15.1179 1.31911C13.8123 0.778333 12.4131 0.5 10.9999 0.5Z" fill="white"/>
</g>
<defs>
<clipPath id="clip0_266_1125">
<rect width="22" height="22" fill="white"/>
</clipPath>
</defs>
</svg>
